<svg xmlns="http://www.w3.org/2000/svg" viewBox="0 0 600 350" width="100%" height="100%">
  <defs>
    <linearGradient id="p4Grad" x1="0%" y1="0%" x2="100%" y2="100%">
      <stop offset="0%" stop-color="#1e1b4b" />
      <stop offset="100%" stop-color="#312e81" />
    </linearGradient>
    <linearGradient id="cardGrad" x1="0%" y1="0%" x2="100%" y2="100%">
      <stop offset="0%" stop-color="#1e293b" />
      <stop offset="100%" stop-color="#0f172a" />
    </linearGradient>
  </defs>
  <rect width="600" height="350" fill="url(#p4Grad)" rx="12" />
  
  <rect x="40" y="30" width="520" height="290" rx="8" fill="#090a1f" stroke="#4338ca" stroke-width="1.5" />
  <circle cx="60" cy="50" r="5" fill="#ef4444" />
  <circle cx="75" cy="50" r="5" fill="#f59e0b" />
  <circle cx="90" cy="50" r="5" fill="#10b981" />
  <text x="115" y="54" font-family="monospace" font-size="11" fill="#a5b4fc">DevLog &amp; Engineering Notes Hub</text>

  <!-- Card Grid in Mockup -->
  <rect x="60" y="80" width="225" height="100" rx="6" fill="url(#cardGrad)" stroke="#3730a3" />
  <text x="75" y="105" font-family="sans-serif" font-size="13" font-weight="bold" fill="#ffffff">Bit Manipulation Tricks</text>
  <text x="75" y="125" font-family="sans-serif" font-size="10" fill="#94a3b8">Fast XOR operations &amp; bitmasking</text>
  <rect x="75" y="145" width="55" height="18" rx="3" fill="#4338ca" />
  <text x="82" y="157" font-family="monospace" font-size="9" fill="#e0e7ff">DSA #04</text>

  <rect x="315" y="80" width="225" height="100" rx="6" fill="url(#cardGrad)" stroke="#3730a3" />
  <text x="330" y="105" font-family="sans-serif" font-size="13" font-weight="bold" fill="#ffffff">Git Essentials for Freshers</text>
  <text x="330" y="125" font-family="sans-serif" font-size="10" fill="#94a3b8">Branching, merge conflicts &amp; PRs</text>
  <rect x="330" y="145" width="55" height="18" rx="3" fill="#4338ca" />
  <text x="337" y="157" font-family="monospace" font-size="9" fill="#e0e7ff">DevOps</text>

  <rect x="60" y="195" width="480" height="95" rx="6" fill="url(#cardGrad)" stroke="#3730a3" />
  <text x="80" y="225" font-family="sans-serif" font-size="13" font-weight="bold" fill="#ffffff">Search &amp; Filter Resources</text>
  <rect x="80" y="240" width="300" height="28" rx="4" fill="#0f172a" stroke="#4f46e5" />
  <text x="95" y="258" font-family="sans-serif" font-size="11" fill="#64748b">Search tagged notes (e.g. C++, Recursion, Linux)...</text>
  <rect x="390" y="240" width="70" height="28" rx="4" fill="#6366f1" />
  <text x="408" y="258" font-family="sans-serif" font-size="11" font-weight="bold" fill="#ffffff">Filter</text>
</svg>

